<svg width="25" height="24" viewBox="0 0 25 24" fill="none" xmlns="http://www.w3.org/2000/svg">
<g clip-path="url(#clip0_510_7281)">
<path fill-rule="evenodd" clip-rule="evenodd" d="M1.84736 1.35264H10.5694V10.1054H1.84736V1.35264ZM7.61792 3.16848C7.61792 3.69552 8.04416 4.12272 8.5688 4.12272C9.0944 4.12272 9.52016 3.69552 9.52016 3.16848C9.52016 2.64096 9.0944 2.21424 8.5688 2.21424C8.04416 2.21424 7.61792 2.64096 7.61792 3.16848ZM7.15952 5.72928C7.15952 5.20176 6.73424 4.77456 6.20864 4.77456C5.68304 4.77456 5.25776 5.20176 5.25776 5.72928C5.25776 6.25632 5.68304 6.68352 6.20864 6.68352C6.73424 6.68352 7.15952 6.25632 7.15952 5.72928ZM4.79888 8.29008C4.79888 7.76256 4.3736 7.33584 3.848 7.33584C3.3224 7.33584 2.89712 7.76304 2.89712 8.29008C2.89712 8.81712 3.3224 9.24432 3.848 9.24432C4.37312 9.24432 4.79888 8.81712 4.79888 8.29008ZM3.84752 4.12272C4.37264 4.12272 4.7984 3.69552 4.7984 3.16848C4.7984 2.64096 4.37312 2.21424 3.84752 2.21424C3.32192 2.21424 2.89664 2.64144 2.89664 3.16848C2.89616 3.69552 3.32192 4.12272 3.84752 4.12272ZM8.56928 7.33584C8.04416 7.33584 7.6184 7.76304 7.6184 8.29008C7.6184 8.81712 8.04368 9.24432 8.56928 9.24432C9.09488 9.24432 9.52064 8.81712 9.52064 8.29008C9.52016 7.76256 9.09488 7.33584 8.56928 7.33584ZM10.2598 15.8981L16.4269 9.70848L22.5949 15.8981L16.4269 22.0877L10.2598 15.8981ZM16.4269 7.79568L8.35424 15.8981L16.4269 24L24.5 15.8981L16.4269 7.79568ZM15.6195 11.737C15.248 12.1099 15.248 12.7138 15.6195 13.0867C15.991 13.4597 16.593 13.4597 16.9645 13.0867C17.336 12.7142 17.336 12.1099 16.9645 11.737C16.593 11.364 15.991 11.364 15.6195 11.737ZM13.6256 16.4376C13.9971 16.0642 13.9971 15.4603 13.6256 15.0874C13.2541 14.7149 12.6522 14.7149 12.2806 15.0874C11.9091 15.4603 11.9091 16.0642 12.2806 16.4376C12.6522 16.8101 13.2536 16.8101 13.6256 16.4376ZM15.7544 15.2232C15.3829 15.5957 15.3829 16.2 15.7544 16.5725C16.1259 16.9454 16.7278 16.9454 17.0994 16.5725C17.4709 16.2 17.4709 15.5957 17.0994 15.2232C16.7278 14.8502 16.1264 14.8502 15.7544 15.2232ZM17.2347 18.7094C16.8632 18.3365 16.2613 18.3365 15.8893 18.7094C15.5178 19.0824 15.5178 19.6862 15.8893 20.0592C16.2613 20.4322 16.8627 20.4322 17.2347 20.0592C17.6058 19.6862 17.6058 19.0819 17.2347 18.7094ZM19.2286 16.7083C19.6002 17.0813 20.2021 17.0813 20.5736 16.7083C20.9451 16.3354 20.9451 15.7315 20.5736 15.3586C20.2021 14.9861 19.6006 14.9861 19.2286 15.3586C18.8571 15.7315 18.8571 16.3354 19.2286 16.7083ZM0.5 0V11.4586H11.9168V0H0.5Z" fill="#FFF72E"/>
</g>
<defs>
<clipPath id="clip0_510_7281">
<rect width="24" height="24" fill="white" transform="translate(0.5)"/>
</clipPath>
</defs>
</svg>
