<svg width="20" height="20" viewBox="0 0 20 20" fill="none" xmlns="http://www.w3.org/2000/svg">
<path fill-rule="evenodd" clip-rule="evenodd" d="M10.4027 1.35518L12.3168 7.28486C12.3742 7.4626 12.5332 7.57822 12.7203 7.57783L18.9511 7.56572C19.3609 7.56494 19.532 8.0915 19.2 8.33135L14.1519 11.9841C14.0003 12.0938 13.9398 12.2806 13.998 12.4583L15.9347 18.3806C16.0617 18.7685 15.6132 19.0942 15.2836 18.854L10.2496 15.1817C10.0984 15.0716 9.90191 15.0716 9.75113 15.1817L4.71714 18.854C4.38746 19.0946 3.93902 18.7688 4.06597 18.3806L6.00269 12.4583C6.06089 12.2806 5.99996 12.0938 5.84878 11.9841L0.800347 8.33135C0.468316 8.09111 0.63941 7.56494 1.04918 7.56572L7.28003 7.57783C7.46714 7.57822 7.62613 7.4626 7.68355 7.28486L9.59761 1.35518C9.72339 0.964941 10.2765 0.964941 10.4027 1.35518Z" fill="#FFF72E"/>
</svg>
