<svg width="33" height="32" viewBox="0 0 33 32" fill="none" xmlns="http://www.w3.org/2000/svg">
<g clip-path="url(#clip0_510_7219)">
<path d="M19.593 32.0039C20.6629 32.0039 21.596 31.0709 21.596 30.0009V25.3231H22.9334C23.736 25.3231 24.2708 24.788 24.2708 23.9856V10.625H8.23438V23.9858C8.23438 24.7882 8.76935 25.3232 9.57181 25.3232H10.9093V30.001C10.9093 31.071 11.8422 32.004 12.9123 32.004C13.9822 32.004 14.9151 31.071 14.9151 30.001V25.3232H17.5901V30.001C17.59 31.0709 18.523 32.0039 19.593 32.0039Z" fill="#130404"/>
<path d="M27.6124 23.9857C28.6823 23.9857 29.6152 23.0528 29.6152 21.9828V12.6271C29.6152 11.5629 28.6823 10.625 27.6124 10.625C26.5423 10.625 25.6094 11.5629 25.6094 12.6271V21.9828C25.6094 23.0527 26.5422 23.9857 27.6124 23.9857Z" fill="#130404"/>
<path d="M4.89341 23.9857C5.96346 23.9857 6.8964 23.0528 6.8964 21.9828V12.6271C6.8964 11.5629 5.96357 10.625 4.89341 10.625C3.82346 10.625 2.89062 11.5629 2.89062 12.6271V21.9828C2.89062 23.0527 3.82346 23.9857 4.89341 23.9857Z" fill="#130404"/>
<path d="M22.6658 0.201816C22.3984 -0.067272 22.0004 -0.067272 21.733 0.201816L19.9392 1.98965L19.8564 2.0723C18.7928 1.53967 17.6002 1.27368 16.2722 1.27112C16.2657 1.27112 16.2593 1.27091 16.2528 1.27091H16.2526C16.2458 1.27091 16.2396 1.27112 16.2329 1.27112C14.905 1.27368 13.7125 1.53967 12.6489 2.0723L12.5659 1.98965L10.7722 0.201816C10.5046 -0.067272 10.1068 -0.067272 9.8394 0.201816C9.57181 0.469409 9.57181 0.866527 9.8394 1.13391L11.5746 2.86942C11.0155 3.24272 10.5085 3.69953 10.0676 4.22201C9.01206 5.47316 8.33881 7.10147 8.24623 8.8657C8.24537 8.88407 8.24356 8.90222 8.2427 8.92059C8.23704 9.04071 8.23438 9.16148 8.23438 9.28268H24.2708C24.2708 9.16148 24.268 9.04071 24.2625 8.92059C24.2617 8.90222 24.2598 8.88407 24.2588 8.8657C24.1664 7.10147 23.4929 5.47306 22.4374 4.22212C21.9967 3.69964 21.4895 3.24283 20.9304 2.86952L22.6658 1.13401C22.9334 0.866527 22.9334 0.469409 22.6658 0.201816ZM12.9098 6.94749C12.3564 6.94749 11.9079 6.4989 11.9079 5.94556C11.9079 5.39222 12.3564 4.94364 12.9098 4.94364C13.4631 4.94364 13.9117 5.39222 13.9117 5.94556C13.9117 6.4989 13.4631 6.94749 12.9098 6.94749ZM19.5954 6.94749C19.0421 6.94749 18.5935 6.4989 18.5935 5.94556C18.5935 5.39222 19.0421 4.94364 19.5954 4.94364C20.1488 4.94364 20.5974 5.39222 20.5974 5.94556C20.5974 6.4989 20.1488 6.94749 19.5954 6.94749Z" fill="#130404"/>
</g>
<defs>
<clipPath id="clip0_510_7219">
<rect width="32" height="32" fill="white" transform="translate(0.25)"/>
</clipPath>
</defs>
</svg>
