<svg width="32" height="32" viewBox="0 0 32 32" fill="none" xmlns="http://www.w3.org/2000/svg">
<path fill-rule="evenodd" clip-rule="evenodd" d="M7.02021 5.29664C7.48101 5.59616 8.10885 5.26976 8.10885 4.70592C8.10885 4.26304 7.69989 3.92832 7.26917 4.01408C7.57253 3.55328 7.24741 2.9216 6.68101 2.9216C6.11461 2.9216 5.78949 3.55328 6.09285 4.01408C5.66213 3.92832 5.25317 4.26368 5.25317 4.70592C5.25317 5.27104 5.88101 5.59616 6.34245 5.29664L6.18949 5.91616H7.17253L7.02021 5.29664ZM14.7104 19.417C14.249 19.1168 13.6205 19.4419 13.6205 20.007C13.6205 20.4499 14.0295 20.7853 14.4602 20.6989C14.1568 21.1597 14.482 21.792 15.0484 21.792C15.6148 21.792 15.9399 21.1603 15.6365 20.6989C16.0672 20.7853 16.4762 20.4499 16.4762 20.007C16.4762 19.4432 15.8484 19.1168 15.3869 19.4157L15.5399 18.7968H14.5568L14.7104 19.417ZM19.2461 24.6202V0H2.48389V24.6202H19.2461ZM17.4394 1.80672V22.8128H4.29125V1.80672H17.4394ZM20.1095 4.98688L22.6266 5.30048L20.0301 26.1466L14.713 25.4842H5.04197L4.96645 26.0902L21.5994 28.1619L24.642 3.7312L20.1095 3.16672V4.98688ZM25.1028 7.01824L24.8775 8.82304L27.3236 9.44192L22.1703 29.8086L16.6816 28.4198L7.38821 27.2621L7.22949 27.8893L23.4778 32L29.5162 8.13504L25.1028 7.01824ZM11.648 14.3379C12.7124 15.0304 14.162 14.2758 14.162 12.9734C14.162 11.9443 13.2224 11.1834 12.2228 11.3766C12.9255 10.3123 12.1728 8.8544 10.8647 8.8544C9.55653 8.8544 8.80389 10.3123 9.50661 11.3766C8.50693 11.1834 7.56805 11.9437 7.56805 12.9734C7.56805 14.2771 9.01829 15.0304 10.0832 14.3354L9.72997 15.7664H11.9994L11.648 14.3379Z" fill="white"/>
</svg>
