<svg width="31" height="31" viewBox="0 0 31 31" fill="none" xmlns="http://www.w3.org/2000/svg">
<g clip-path="url(#clip0_510_7273)">
<path fill-rule="evenodd" clip-rule="evenodd" d="M12.2946 23.9878H14.7231V28.3365H12.2946V23.9878ZM16.2769 28.3365V23.9878H18.7048V28.3365H16.2769ZM2.94314 10.279H5.91728V28.3365H2.94314V10.279ZM29.8177 28.3365V8.51754H25.0827V4.74794H5.91666V8.51692H1.18172V28.3358H0V30.0973H31V28.3358L29.8177 28.3365ZM25.0821 10.279H28.0562V28.3365H25.0821V10.279ZM3.64064 13.5898H5.21916V12.0342H3.64064V13.5898ZM5.21916 15.4491H3.64064V17.0047H5.21916V15.4491ZM5.21916 18.8635H3.64064V20.4191H5.21916V18.8635ZM5.21916 22.2784H3.64064V23.834H5.21916V22.2784ZM9.28512 18.8647V20.4184H21.7143V18.8647H9.28512ZM9.28512 17.0041H21.7143V15.4498H9.28512V17.0041ZM9.28512 13.5891H21.7143V12.0354H9.28512V13.5891ZM9.28512 10.1748H21.7143V8.62108H9.28512V10.1748ZM25.7802 12.0348V13.5904H27.3581V12.0348H25.7802ZM27.3581 15.4491H25.7802V17.0047H27.3581V15.4491ZM27.3581 18.8635H25.7802V20.4191H27.3581V18.8635ZM27.3581 22.2784H25.7802V23.834H27.3581V22.2784ZM7.71032 2.90716L8.34458 2.20718L7.41334 2.00878L6.93408 1.19658L6.4542 2.00816L5.52296 2.20718L6.15784 2.90716L6.06174 3.84088L6.93408 3.46268L7.8058 3.84088L7.71032 2.90716ZM10.0911 0.902084C9.23676 0.902084 8.96272 1.32864 8.96272 2.51904C8.96272 3.68216 9.16608 4.13538 10.0911 4.13538C10.6218 4.13538 11.1346 3.92644 11.1346 3.05472V2.82408H10.3385C10.3385 3.41246 10.2901 3.58668 10.0911 3.58668C9.84312 3.58668 9.81274 3.35976 9.81274 2.51966C9.81274 1.67832 9.84312 1.4514 10.0911 1.4514C10.2498 1.4514 10.3168 1.55556 10.3168 1.90896V2.08318H11.1129V1.88664C11.1129 1.28524 10.8339 0.902084 10.0911 0.902084ZM12.2363 2.92018L12.462 1.59958H12.4707L12.6964 2.92018H12.2363ZM11.9486 0.962844L11.1792 4.07462H12.0553L12.139 3.52964H12.7937L12.8774 4.07462H13.7535L12.984 0.962844H11.9486ZM14.8682 0.902084C14.1738 0.902084 13.8334 1.24184 13.8334 1.87362C13.8334 2.97598 15.1255 2.67094 15.1255 3.28536C15.1255 3.45524 15.0319 3.58668 14.8595 3.58668C14.7008 3.58668 14.5898 3.49058 14.5898 3.22522V3.15082H13.7938V3.25994C13.7938 3.90474 14.1744 4.136 14.8552 4.136C15.5806 4.136 15.9737 3.83964 15.9737 3.17686C15.9737 2.03978 14.6295 2.34048 14.6295 1.72606C14.6295 1.58656 14.7089 1.4514 14.8856 1.4514C15.1069 1.4514 15.1199 1.69754 15.1199 1.8606H15.8894C15.89 1.1941 15.5893 0.902084 14.8682 0.902084ZM16.2353 0.962844V4.07462H17.0581V0.962844H16.2353ZM17.4158 0.962844V4.07462H18.1858V2.15262H18.1951L18.7432 4.07462H19.6453V0.962844H18.8759V2.8805H18.8666L18.3359 0.962844H17.4158ZM21.0701 0.902084C20.2294 0.902084 19.9417 1.35468 19.9417 2.51904C19.9417 3.68216 20.2294 4.13538 21.0701 4.13538C21.9102 4.13538 22.1979 3.68216 22.1979 2.51904C22.1979 1.3553 21.9102 0.902084 21.0701 0.902084ZM21.0701 1.4514C21.3175 1.4514 21.3485 1.6777 21.3485 2.51966C21.3485 3.36038 21.3181 3.58668 21.0701 3.58668C20.8221 3.58668 20.7917 3.35976 20.7917 2.51966C20.7917 1.6777 20.8221 1.4514 21.0701 1.4514ZM23.586 2.00816L22.6548 2.20718L23.2897 2.90716L23.1942 3.84088L24.0659 3.46268L24.9383 3.84088L24.8422 2.90716L25.477 2.20718L24.5458 2.00878L24.0653 1.19658L23.586 2.00816ZM7.67808 28.3365V6.50936H23.3207V28.3365H20.2585V22.4334H10.7409V28.3365H7.67808Z" fill="white"/>
</g>
<defs>
<clipPath id="clip0_510_7273">
<rect width="31" height="31" fill="white"/>
</clipPath>
</defs>
</svg>
