<svg width="32" height="32" viewBox="0 0 32 32" fill="none" xmlns="http://www.w3.org/2000/svg">
<g clip-path="url(#clip0_510_7269)">
<path fill-rule="evenodd" clip-rule="evenodd" d="M13.5073 12.8429C14.0487 12.8429 14.4878 12.4038 14.4878 11.863C14.4878 11.321 14.0487 10.8819 13.5073 10.8819L13.3083 10.9024C13.3351 10.96 13.3505 11.0246 13.3505 11.0925C13.3505 11.3414 13.1489 11.543 12.9006 11.543C12.795 11.543 12.6971 11.5059 12.6209 11.4451C12.5614 11.5718 12.5281 11.7133 12.5281 11.863C12.5268 12.4038 12.9659 12.8429 13.5073 12.8429ZM17.643 11.863C17.643 12.4045 18.082 12.8429 18.6235 12.8429C19.1649 12.8429 19.6039 12.4038 19.6039 11.863C19.6039 11.321 19.1649 10.8819 18.6235 10.8819L18.4244 10.9024C18.4507 10.96 18.466 11.0246 18.466 11.0925C18.466 11.3414 18.2644 11.543 18.0161 11.543C17.9105 11.543 17.8126 11.5059 17.7358 11.4451C17.6763 11.5712 17.643 11.7133 17.643 11.863ZM21.0875 16.816L26.0135 17.9962C26.3451 16.0205 26.6139 14.1459 26.6139 12.128C26.6139 9.05152 26.0161 6.3456 24.7047 4.26752C23.3531 2.12544 21.2737 0.672004 18.3527 0.182404C16.8923 -0.062076 15.2903 -0.060796 13.8305 0.183044C10.8852 0.675844 8.7777 2.144 7.40298 4.30464C6.06922 6.40192 5.45418 9.13728 5.45418 12.2458C5.45418 14.2266 5.71722 16.0602 6.0417 17.9994L10.9761 16.8147C12.6497 19.0387 13.6782 19.9917 16.0315 19.9917C18.3841 19.993 19.4139 19.0406 21.0875 16.816ZM22.2292 15.2288C22.5396 14.6131 22.9563 13.1373 23.1214 11.8675C23.2628 10.7776 23.3415 9.71648 22.4769 8.93824C20.866 8.8512 19.3633 8.65088 17.8299 8.11904C16.1127 7.5232 15.1297 6.79808 13.7819 5.6768C13.2129 6.64896 12.8014 7.44128 11.8286 8.11392C11.0491 8.65408 10.3271 8.83392 9.41898 8.99392C8.79242 10.0154 8.87562 11.0074 9.02666 12.1754C9.1809 13.3568 9.51114 14.6259 9.8305 15.2294L7.52394 15.783C7.35754 14.5606 7.27114 13.376 7.27114 12.2464C7.27114 9.47328 7.79658 7.06944 8.93642 5.27808C10.0359 3.54944 11.7371 2.37312 14.1275 1.97248C15.3723 1.76448 16.8097 1.7632 18.0539 1.97184C20.4206 2.36864 22.0942 3.52832 23.1694 5.23328C24.2862 7.00224 24.795 9.3792 24.795 12.1274C24.795 13.2922 24.7047 14.5152 24.5313 15.7792L22.2292 15.2288ZM17.3108 9.6288C18.6196 10.0819 20.0667 10.3699 21.643 10.4896C21.6449 10.7226 21.6007 11.1603 21.5361 11.6608C21.3787 12.8723 21.0228 14.2042 20.8251 14.4755C19.5879 16.1664 18.3643 18.3885 16.0315 18.3885C13.698 18.3885 12.4763 16.167 11.2391 14.4755C11.0273 14.1856 10.7566 13.0707 10.6132 11.9693C10.5319 11.3434 10.4897 10.7597 10.5255 10.4115C11.3511 10.2106 12.0891 9.87968 12.7374 9.42976C13.2884 9.04832 13.771 8.58432 14.1844 8.04416C15.1124 8.69952 16.1575 9.2288 17.3108 9.6288ZM18.466 20.0998L16.0001 21.2858L13.5342 20.0998V23.2819L16.0001 22.0717L18.466 23.2819V20.0998ZM4.03914 24.2061L7.20266 30.1824H3.3281V27.4573C3.3281 26.1171 3.58154 25.0522 4.03914 24.2061ZM24.7975 30.1824L27.9611 24.2061C28.4187 25.0515 28.6721 26.1171 28.6721 27.4573V30.1824H24.7975ZM9.60778 21.1098L14.482 30.1824H9.01258L5.13418 22.8557C6.37898 21.817 8.03722 21.3632 9.60778 21.1098ZM17.5175 30.1824L22.3918 21.1098C23.9623 21.3632 25.6212 21.817 26.8647 22.8557L22.9863 30.1824H17.5175ZM16.0001 29.1744L10.61 19.1418C8.28362 19.4464 5.8881 19.8758 4.02314 21.4189C2.4481 22.7226 1.5105 24.6368 1.5105 27.4573V32H30.491V27.4573C30.491 24.6362 29.5534 22.7219 27.9783 21.4189C26.1134 19.8758 23.7172 19.4464 21.3908 19.1418L16.0001 29.1744ZM15.2519 23.1213V24.6355H16.7476V23.1213H15.2519ZM16.7483 25.4278H15.2526V26.9421H16.7483V25.4278ZM18.1307 15.1885C17.4625 15.3939 16.6913 15.4931 15.9937 15.4931C15.2635 15.4931 14.5793 15.392 13.9943 15.2154C13.9995 16.0691 14.9243 16.7597 16.0654 16.7597C17.0843 16.7603 18.0302 16.2675 18.1307 15.1885Z" fill="white"/>
</g>
<defs>
<clipPath id="clip0_510_7269">
<rect width="32" height="32" fill="white"/>
</clipPath>
</defs>
</svg>
