<svg width="32" height="32" viewBox="0 0 32 32" fill="none" xmlns="http://www.w3.org/2000/svg">
<g clip-path="url(#clip0_510_7265)">
<path fill-rule="evenodd" clip-rule="evenodd" d="M0.547702 20.1402C2.8325 28.6663 11.6127 33.7376 20.1394 31.4522C28.6661 29.1687 33.7368 20.3866 31.452 11.8605C29.1679 3.3338 20.3858 -1.73692 11.8603 0.547879C3.33298 2.83204 -1.73646 11.6135 0.547702 20.1402ZM21.6984 6.28164L22.9701 3.64868C24.3045 4.41028 25.4776 5.3338 26.5106 6.47364L24.2226 8.29444C23.5 7.52388 22.6552 6.84228 21.6984 6.28164ZM7.78226 23.7082C8.50546 24.4788 9.34898 25.1584 10.3071 25.7191L9.03602 28.3552C7.70034 27.5936 6.52786 26.672 5.49362 25.5316L7.78226 23.7082ZM15.0911 4.76996C14.0159 4.857 12.9522 5.09956 11.9455 5.48804L10.6776 2.85444C12.0856 2.28548 13.5749 1.94564 15.0911 1.8458V4.76996ZM4.36914 7.88292L6.65714 9.70756C6.05426 10.6042 5.58002 11.5834 5.25362 12.6144L2.40114 11.9623C2.83442 10.5069 3.50194 9.12836 4.36914 7.88292ZM10.3103 6.27396C9.38866 6.8122 8.53618 7.48676 7.7861 8.2874L5.49938 6.46276C6.53618 5.31908 7.73554 4.37316 9.04178 3.63972L10.3103 6.27396ZM4.8485 14.3821C4.69234 15.4618 4.6949 16.5498 4.8485 17.6116L1.99922 18.2612C1.75794 16.7738 1.75218 15.2442 1.99666 13.7306L4.8485 14.3821ZM5.2517 19.3792C5.57426 20.4045 6.04402 21.3863 6.65074 22.2893L4.36274 24.1114C3.48978 22.857 2.83058 21.4759 2.40178 20.0282L5.2517 19.3792ZM11.9397 26.5088C12.9669 26.9076 14.0267 27.145 15.0879 27.2314L15.0859 30.1556C13.5954 30.0608 12.1042 29.7293 10.668 29.1444L11.9397 26.5088ZM20.0504 26.5133L21.317 29.1476C19.9077 29.7159 18.4146 30.0564 16.8978 30.1549L16.8997 27.232C17.98 27.1444 19.0392 26.9018 20.0504 26.5133ZM22.9496 28.3642L21.6831 25.7293C22.6053 25.1911 23.4584 24.5165 24.2091 23.7165L26.4959 25.5424C25.4578 26.6861 24.2565 27.6314 22.9496 28.3642ZM26.7435 19.3908L29.596 20.0442C29.1621 21.5008 28.4939 22.8762 27.6261 24.1229L25.3387 22.297C25.9416 21.401 26.4171 20.4205 26.7435 19.3908ZM27.1512 14.393L30.0011 13.7453C30.2418 15.2327 30.2475 16.7629 30.0018 18.2759L27.1499 17.6231C27.3074 16.544 27.3048 15.456 27.1512 14.393ZM25.3528 9.71524L27.6402 7.8938C28.5131 9.14884 29.1711 10.53 29.5992 11.9783L26.7493 12.626C26.4274 11.6 25.9589 10.6176 25.3528 9.71524ZM16.9087 4.76868V1.84388C18.4024 1.93796 19.8975 2.27204 21.3368 2.85828L20.0651 5.49316C19.0354 5.09316 17.9723 4.85444 16.9087 4.76868ZM6.8709 18.4468C5.52114 13.4048 8.51058 8.22148 13.5531 6.87108C18.6968 5.4938 23.8059 8.61124 25.1288 13.5527C26.4664 18.546 23.5448 23.7632 18.4472 25.129C13.381 26.4864 8.21362 23.4548 6.8709 18.4468ZM15.3131 14.1792L12.1579 10.7252L10.725 12.1581L14.1791 15.3133V16.6868L10.725 19.842L12.1579 21.2749L15.3131 17.8208H16.6866L19.8418 21.2749L21.2747 19.842L17.8207 16.6868V15.3133L21.2747 12.1581L19.8418 10.7252L16.6866 14.1792H15.3131Z" fill="white"/>
</g>
<defs>
<clipPath id="clip0_510_7265">
<rect width="32" height="32" fill="white"/>
</clipPath>
</defs>
</svg>
