<svg width="32" height="32" viewBox="0 0 32 32" fill="none" xmlns="http://www.w3.org/2000/svg">
<g clip-path="url(#clip0_510_7277)">
<path fill-rule="evenodd" clip-rule="evenodd" d="M19.2864 21.0605L17.1181 20.5907L16 18.6733L14.8813 20.5907L12.713 21.0605L14.1926 22.7168L13.9686 24.9248L16 24.0288L18.0307 24.9242L17.8074 22.7162L19.2864 21.0605ZM9.89696 22.5933L11.1757 21.1597L9.30048 20.7539L8.3328 19.0944L7.36512 20.7539L5.48864 21.1597L6.768 22.5933L6.57472 24.503L8.33216 23.7286L10.089 24.503L9.89696 22.5933ZM5.73952 17.0253H7.31136V15.4541H5.73952V17.0253ZM8.88256 15.4541V17.0253H10.4544V15.4541H8.88256ZM12.0256 15.4541V17.0253H13.5974V15.4541H12.0256ZM15.1686 15.4541V17.0253H16.7398V15.4541H15.1686ZM18.3117 15.4541V17.0253H19.8829V15.4541H18.3117ZM21.4541 15.4541V17.0253H23.0253V15.4541H21.4541ZM24.5971 15.4541V17.0253H26.1683V15.4541H24.5971ZM24.6259 26.5722H23.0541V28.1434H24.6259V26.5722ZM21.4829 28.1434V26.5722H19.911V28.1434H21.4829ZM18.3398 28.1434V26.5722H16.7686V28.1434H18.3398ZM15.1968 28.1434V26.5722H13.6256V28.1434H15.1968ZM12.0538 28.1434V26.5722H10.4826V28.1434H12.0538ZM8.91136 28.1434V26.5722H7.34016V28.1434H8.91136ZM3.95392 31.1936H28.0512L32 1.31584L21.6365 11.4406L16.0006 0.806396L10.3654 11.44L0 1.3152L3.95392 31.1936ZM5.76832 28.1434V26.5722H5.1328L3.86944 17.0253H4.16768V15.4541H3.66144L2.43392 6.17536L10.823 14.3699L16.0006 4.60032L21.1782 14.3699L29.568 6.17536L28.3418 15.4541H27.7402V17.0253H28.1338L26.8717 26.5722H26.1971V28.1434H26.6643L26.4966 29.4118H5.50848L5.3408 28.1434H5.76832ZM23.6672 19.0944L22.6995 20.7539L20.8243 21.1597L22.103 22.5933L21.9104 24.503L23.6672 23.7286L25.4246 24.503L25.232 22.5933L26.5114 21.1597L24.6349 20.7539L23.6672 19.0944Z" fill="white"/>
</g>
<defs>
<clipPath id="clip0_510_7277">
<rect width="32" height="32" fill="white"/>
</clipPath>
</defs>
</svg>
